{
  "asset": {
    "generator": "Khronos glTF Blender I/O v1.5.17",
    "version": "2.0"
  },
  "scene": 0,
  "scenes": [
    {
      "name": "Scene",
      "nodes": [
        0
      ]
    }
  ],
  "nodes": [
    {
      "mesh": 0,
      "name": "sphere_gltf"
    }
  ],
  "materials": [
    {
      "doubleSided": true,
      "name": "fabric_leather_02",
      "normalTexture": {
        "index": 0
      },
      "pbrMetallicRoughness": {
        "baseColorTexture": {
          "index": 1
        },
        "metallicFactor": 0,
        "metallicRoughnessTexture": {
          "index": 2
        }
      }
    }
  ],
  "meshes": [
    {
      "name": "Sphere.001",
      "primitives": [
        {
          "attributes": {
            "POSITION": 0,
            "NORMAL": 1,
            "TEXCOORD_0": 2
          },
          "indices": 3,
          "material": 0
        }
      ]
    }
  ],
  "textures": [
    {
      "sampler": 0,
      "source": 0
    },
    {
      "sampler": 0,
      "source": 1
    },
    {
      "sampler": 0,
      "source": 2
    }
  ],
  "images": [
    {
      "mimeType": "image/jpeg",
      "name": "fabric_leather_02_nor_gl_4k",
      "uri": "textures/fabric_leather_02_nor_gl_1k.jpg"
    },
    {
      "mimeType": "image/jpeg",
      "name": "fabric_leather_02_diff_4k",
      "uri": "textures/fabric_leather_02_diff_1k.jpg"
    },
    {
      "mimeType": "image/jpeg",
      "name": "fabric_leather_02_rough_4k",
      "uri": "textures/fabric_leather_02_rough_1k.jpg"
    }
  ],
  "accessors": [
    {
      "bufferView": 0,
      "componentType": 5126,
      "count": 53905,
      "max": [
        0.2499038577079773,
        0.252421498298645,
        0.25175875425338745
      ],
      "min": [
        -0.24990378320217133,
        -0.25248298048973083,
        -0.25175851583480835
      ],
      "type": "VEC3"
    },
    {
      "bufferView": 1,
      "componentType": 5126,
      "count": 53905,
      "type": "VEC3"
    },
    {
      "bufferView": 2,
      "componentType": 5126,
      "count": 53905,
      "type": "VEC2"
    },
    {
      "bufferView": 3,
      "componentType": 5123,
      "count": 322170,
      "type": "SCALAR"
    }
  ],
  "bufferViews": [
    {
      "buffer": 0,
      "byteLength": 646860,
      "byteOffset": 0
    },
    {
      "buffer": 0,
      "byteLength": 646860,
      "byteOffset": 646860
    },
    {
      "buffer": 0,
      "byteLength": 431240,
      "byteOffset": 1293720
    },
    {
      "buffer": 0,
      "byteLength": 644340,
      "byteOffset": 1724960
    }
  ],
  "samplers": [
    {
      "magFilter": 9729,
      "minFilter": 9987
    }
  ],
  "buffers": [
    {
      "byteLength": 2369300,
      "uri": "fabric_leather_02.bin"
    }
  ]
}